<svg data-v-423bf9ae="" xmlns="http://www.w3.org/2000/svg" viewBox="0 0 308 90" class="iconLeft"><!----><!----><!----><g data-v-423bf9ae="" id="c6f4a37f-32da-4b45-b6a7-1a262af78b2a" fill="#22255B" transform="matrix(5.899704970490485,0,0,5.899704970490485,109.35103734553239,-2.168140778410155)"><path d="M2.23 5.15L2.23 5.15L2.21 6.51L2.21 6.51Q2.21 6.59 2.27 6.59L2.27 6.59L2.27 6.59Q2.32 6.59 2.38 6.55L2.38 6.55L2.38 6.55Q2.73 6.31 3.49 6.31L3.49 6.31L3.49 6.31Q4.76 6.31 5.25 7.18L5.25 7.18L5.25 7.18Q5.43 7.50 5.43 8.04L5.43 8.04L5.43 8.04Q5.43 8.57 5.37 9.51L5.37 9.51L5.37 9.51Q5.31 10.44 5.31 10.84L5.31 10.84L5.31 10.84Q5.31 12.21 5.70 12.66L5.70 12.66L5.70 12.66Q5.77 12.73 5.77 12.80L5.77 12.80L5.77 12.80Q5.77 12.94 5.17 12.94L5.17 12.94L5.17 12.94Q3.54 12.94 3.54 11.42L3.54 11.42L3.54 11.42Q3.54 10.84 3.82 9.77L3.82 9.77L3.82 9.77Q4.10 8.71 4.10 8.20L4.10 8.20L4.10 8.20Q4.10 7.70 3.86 7.43L3.86 7.43L3.86 7.43Q3.63 7.15 3.21 7.15L3.21 7.15L3.21 7.15Q2.79 7.15 2.54 7.34L2.54 7.34L2.54 7.34Q2.30 7.52 2.24 7.71L2.24 7.71L2.20 7.90L2.20 7.90Q2.18 8.16 2.18 9.59L2.18 9.59L2.18 9.59Q2.18 11.02 2.25 11.45L2.25 11.45L2.25 11.45Q2.32 11.87 2.32 11.93L2.32 11.93L2.32 11.93Q2.32 12.33 1.78 12.65L1.78 12.65L1.78 12.65Q1.23 12.96 0.70 12.96L0.70 12.96L0.70 12.96Q0.50 12.96 0.50 12.74L0.50 12.74L0.53 12.47L0.53 12.47Q0.84 10.12 0.84 7.38L0.84 7.38L0.84 7.38Q0.84 6.31 0.76 5.22L0.76 5.22L0.74 4.91L0.74 4.91Q0.71 4.52 0.58 4.24L0.58 4.24L0.58 4.24Q0.45 3.96 0.34 3.88L0.34 3.88L0.21 3.81L0.21 3.81Q0.11 3.75 0.11 3.68L0.11 3.68L0.11 3.68Q0.11 3.49 0.77 3.20L0.77 3.20L0.77 3.20Q1.43 2.91 1.79 2.91L1.79 2.91L1.79 2.91Q2.14 2.91 2.17 3.07L2.17 3.07L2.17 3.07Q2.23 3.78 2.23 5.15ZM10.86 8.47L10.86 8.47L10.84 10.26L10.84 10.26Q10.84 12.12 11.24 12.50L11.24 12.50L11.24 12.50Q11.30 12.56 11.30 12.63L11.30 12.63L11.30 12.63Q11.30 12.84 10.39 12.84L10.39 12.84L10.39 12.84Q9.49 12.84 9.44 12.31L9.44 12.31L9.44 12.31Q9.42 12.18 9.42 11.79L9.42 11.79L9.48 9.55L9.48 9.55Q9.48 9.45 9.37 9.45L9.37 9.45L9.37 9.45Q8.69 9.45 8.11 9.83L8.11 9.83L8.11 9.83Q7.52 10.21 7.52 10.79L7.52 10.79L7.52 10.79Q7.52 11.10 7.69 11.31L7.69 11.31L7.69 11.31Q7.85 11.52 8.10 11.52L8.10 11.52L8.10 11.52Q8.34 11.52 8.50 11.42L8.50 11.42L8.50 11.42Q8.67 11.33 8.69 11.31L8.69 11.31L8.69 11.31Q8.93 11.34 8.93 11.81L8.93 11.81L8.93 11.81Q8.93 12.28 8.50 12.56L8.50 12.56L8.50 12.56Q8.06 12.85 7.59 12.85L7.59 12.85L7.59 12.85Q7.11 12.85 6.77 12.68L6.77 12.68L6.77 12.68Q6.43 12.52 6.27 12.31L6.27 12.31L6.27 12.31Q6.12 12.10 6.02 11.83L6.02 11.83L6.02 11.83Q5.92 11.51 5.92 11.27L5.92 11.27L5.92 11.27Q5.92 10.29 6.54 9.70L6.54 9.70L6.54 9.70Q7.15 9.11 8.12 8.86L8.12 8.86L8.12 8.86Q9.39 8.61 9.45 8.40L9.45 8.40L9.45 8.40Q9.49 8.25 9.49 7.88L9.49 7.88L9.49 7.88Q9.49 7.14 8.74 7.14L8.74 7.14L8.74 7.14Q8.41 7.14 8.16 7.34L8.16 7.34L8.16 7.34Q7.91 7.55 7.91 7.85L7.91 7.85L7.99 8.19L7.99 8.19Q7.97 8.43 7.49 8.47L7.49 8.47L7.34 8.48L7.34 8.48Q6.92 8.48 6.67 8.27L6.67 8.27L6.67 8.27Q6.43 8.06 6.43 7.71L6.43 7.71L6.43 7.71Q6.43 7.49 6.57 7.22L6.57 7.22L6.57 7.22Q6.72 6.94 6.94 6.78L6.94 6.78L6.94 6.78Q7.17 6.61 7.64 6.47L7.64 6.47L7.64 6.47Q8.11 6.34 8.54 6.34L8.54 6.34L8.54 6.34Q8.97 6.34 9.21 6.37L9.21 6.37L9.21 6.37Q9.45 6.40 9.86 6.50L9.86 6.50L9.86 6.50Q10.28 6.61 10.55 6.90L10.55 6.90L10.55 6.90Q10.82 7.20 10.84 7.52L10.84 7.52L10.84 7.52Q10.86 7.85 10.86 8.47ZM11.51 7.21L11.51 7.21L11.55 6.65L11.55 6.65Q11.56 6.52 11.75 6.52L11.75 6.52L12.24 6.52L12.18 5.40L12.18 5.35L12.18 5.35Q12.18 5.03 12.67 4.73L12.67 4.73L12.67 4.73Q13.16 4.44 13.57 4.44L13.57 4.44L13.57 4.44Q13.69 4.44 13.69 4.55L13.69 4.55L13.69 4.56L13.69 4.56Q13.64 4.94 13.58 6.51L13.58 6.51L13.58 6.51Q14.20 6.51 14.36 6.48L14.36 6.48L14.36 6.48Q14.53 6.45 14.55 6.45L14.55 6.45L14.55 6.45Q14.64 6.45 14.64 6.62L14.64 6.62L14.64 6.62Q14.64 6.79 14.49 7.05L14.49 7.05L14.49 7.05Q14.34 7.31 14.15 7.32L14.15 7.32L13.57 7.32L13.57 7.32Q13.55 7.80 13.55 8.93L13.55 8.93L13.55 8.93Q13.55 10.05 13.57 10.78L13.57 10.78L13.57 10.78Q13.59 11.51 13.62 11.88L13.62 11.88L13.62 11.88Q13.65 12.25 13.69 12.47L13.69 12.47L13.69 12.47Q13.72 12.70 13.74 12.80L13.74 12.80L13.74 12.80Q13.76 12.89 13.76 12.92L13.76 12.92L13.76 12.92Q13.76 13.06 13.58 13.08L13.58 13.08L13.58 13.08Q13.03 13.08 12.50 12.92L12.50 12.92L12.50 12.92Q11.96 12.77 11.96 12.39L11.96 12.39L11.96 12.39Q12.25 10.04 12.25 7.34L12.25 7.34L12.25 7.34Q11.87 7.34 11.68 7.36L11.68 7.36L11.66 7.36L11.66 7.36Q11.54 7.36 11.51 7.21ZM14.64 7.21L14.64 7.21L14.69 6.65L14.69 6.65Q14.70 6.52 14.88 6.52L14.88 6.52L15.37 6.52L15.32 5.40L15.32 5.35L15.32 5.35Q15.32 5.03 15.81 4.73L15.81 4.73L15.81 4.73Q16.30 4.44 16.70 4.44L16.70 4.44L16.70 4.44Q16.83 4.44 16.83 4.55L16.83 4.55L16.83 4.56L16.83 4.56Q16.77 4.94 16.72 6.51L16.72 6.51L16.72 6.51Q17.33 6.51 17.50 6.48L17.50 6.48L17.50 6.48Q17.67 6.45 17.68 6.45L17.68 6.45L17.68 6.45Q17.78 6.45 17.78 6.62L17.78 6.62L17.78 6.62Q17.78 6.79 17.63 7.05L17.63 7.05L17.63 7.05Q17.47 7.31 17.29 7.32L17.29 7.32L16.70 7.32L16.70 7.32Q16.69 7.80 16.69 8.93L16.69 8.93L16.69 8.93Q16.69 10.05 16.71 10.78L16.71 10.78L16.71 10.78Q16.73 11.51 16.76 11.88L16.76 11.88L16.76 11.88Q16.79 12.25 16.82 12.47L16.82 12.47L16.82 12.47Q16.86 12.70 16.88 12.80L16.88 12.80L16.88 12.80Q16.90 12.89 16.90 12.92L16.90 12.92L16.90 12.92Q16.90 13.06 16.72 13.08L16.72 13.08L16.72 13.08Q16.17 13.08 15.63 12.92L15.63 12.92L15.63 12.92Q15.09 12.77 15.09 12.39L15.09 12.39L15.09 12.39Q15.39 10.04 15.39 7.34L15.39 7.34L15.39 7.34Q15.01 7.34 14.81 7.36L14.81 7.36L14.80 7.36L14.80 7.36Q14.67 7.36 14.64 7.21ZM22.95 6.44L22.95 6.44L22.95 6.44Q22.69 7.95 22.69 10.29L22.69 10.29L22.69 10.29Q22.69 12.01 22.83 12.56L22.83 12.56L22.89 12.74L22.89 12.74Q22.89 12.92 22.58 12.92L22.58 12.92L22.58 12.92Q21.50 12.92 21.35 12.32L21.35 12.32L21.35 12.32Q21.34 12.25 21.29 12.25L21.29 12.25L21.29 12.25Q21.24 12.25 21.20 12.31L21.20 12.31L21.20 12.31Q20.76 12.88 19.85 12.88L19.85 12.88L19.85 12.88Q19.35 12.88 18.80 12.63L18.80 12.63L18.80 12.63Q18.47 12.47 18.26 12.09L18.26 12.09L18.26 12.09Q18.05 11.70 18.05 11.14L18.05 11.14L18.26 8.08L18.26 8.08Q18.26 7.11 18.06 6.71L18.06 6.71L18.06 6.71Q17.99 6.55 17.99 6.51L17.99 6.51L17.99 6.51Q17.99 6.43 18.06 6.40L18.06 6.40L18.06 6.40Q18.28 6.33 18.63 6.33L18.63 6.33L18.63 6.33Q19.99 6.33 19.99 7.45L19.99 7.45L19.99 7.45Q19.99 7.80 19.71 9.04L19.71 9.04L19.71 9.04Q19.42 10.29 19.42 10.81L19.42 10.81L19.42 10.81Q19.42 11.34 19.65 11.62L19.65 11.62L19.65 11.62Q19.88 11.90 20.29 11.90L20.29 11.90L20.29 11.90Q20.71 11.90 20.94 11.61L20.94 11.61L20.94 11.61Q21.18 11.31 21.22 11.02L21.22 11.02L21.27 10.72L21.27 10.72Q21.32 10.23 21.32 9.00L21.32 9.00L21.32 9.00Q21.32 7.77 21.25 7.44L21.25 7.44L21.25 7.44Q21.17 7.11 21.17 7.03L21.17 7.03L21.17 7.03Q21.17 6.68 21.73 6.47L21.73 6.47L21.73 6.47Q22.29 6.27 22.74 6.27L22.74 6.27L22.74 6.27Q22.95 6.27 22.95 6.44ZM27.87 10.75L27.87 10.75L27.87 10.75Q27.87 11.35 27.64 11.80L27.64 11.80L27.64 11.80Q27.41 12.25 27.12 12.46L27.12 12.46L27.12 12.46Q26.82 12.67 26.42 12.80L26.42 12.80L26.42 12.80Q25.89 12.96 25.45 12.96L25.45 12.96L25.45 12.96Q24.54 12.96 23.94 12.61L23.94 12.61L23.94 12.61Q23.34 12.25 23.34 11.47L23.34 11.47L23.34 11.47Q23.34 11.00 23.59 10.71L23.59 10.71L23.59 10.71Q23.98 10.28 24.53 10.28L24.53 10.28L24.53 10.28Q24.70 10.28 24.70 10.43L24.70 10.43L24.70 10.43Q24.70 10.44 24.63 10.65L24.63 10.65L24.63 10.65Q24.57 10.85 24.57 11.16L24.57 11.16L24.57 11.16Q24.57 11.47 24.82 11.70L24.82 11.70L24.82 11.70Q25.06 11.94 25.41 11.94L25.41 11.94L25.41 11.94Q25.76 11.94 25.97 11.82L25.97 11.82L25.97 11.82Q26.18 11.70 26.26 11.52L26.26 11.52L26.26 11.52Q26.39 11.27 26.39 11.05L26.39 11.05L26.39 11.05Q26.39 10.64 25.98 10.35L25.98 10.35L25.98 10.35Q25.58 10.05 25.09 9.88L25.09 9.88L25.09 9.88Q24.60 9.72 24.19 9.32L24.19 9.32L24.19 9.32Q23.79 8.93 23.79 8.34L23.79 8.34L23.79 8.34Q23.79 7.34 24.42 6.83L24.42 6.83L24.42 6.83Q25.06 6.33 26.15 6.33L26.15 6.33L26.15 6.33Q26.63 6.33 27.15 6.46L27.15 6.46L27.15 6.46Q27.68 6.59 27.68 6.91L27.68 6.91L27.68 6.91Q27.68 7.22 27.57 7.49L27.57 7.49L27.57 7.49Q27.47 7.76 27.31 7.76L27.31 7.76L27.31 7.76Q27.23 7.76 27.20 7.69L27.20 7.69L27.20 7.69Q27.17 7.63 27.10 7.55L27.10 7.55L27.10 7.55Q27.03 7.46 26.77 7.33L26.77 7.33L26.77 7.33Q26.50 7.20 26.31 7.20L26.31 7.20L26.31 7.20Q26.12 7.20 26.06 7.20L26.06 7.20L26.06 7.20Q26.00 7.21 25.84 7.25L25.84 7.25L25.84 7.25Q25.69 7.28 25.56 7.35L25.56 7.35L25.56 7.35Q25.24 7.53 25.24 7.88L25.24 7.88L25.24 7.88Q25.24 8.11 25.34 8.21L25.34 8.21L25.34 8.21Q25.44 8.32 25.49 8.37L25.49 8.37L25.49 8.37Q25.55 8.43 25.69 8.50L25.69 8.50L25.69 8.50Q25.83 8.58 25.89 8.61L25.89 8.61L25.89 8.61Q25.94 8.64 26.14 8.73L26.14 8.73L26.14 8.73Q26.33 8.82 26.39 8.85L26.39 8.85L26.39 8.85Q27.87 9.55 27.87 10.75ZM33.11 8.47L33.11 8.47L33.08 10.26L33.08 10.26Q33.08 12.12 33.49 12.50L33.49 12.50L33.49 12.50Q33.54 12.56 33.54 12.63L33.54 12.63L33.54 12.63Q33.54 12.84 32.64 12.84L32.64 12.84L32.64 12.84Q31.74 12.84 31.68 12.31L31.68 12.31L31.68 12.31Q31.67 12.18 31.67 11.79L31.67 11.79L31.72 9.55L31.72 9.55Q31.72 9.45 31.61 9.45L31.61 9.45L31.61 9.45Q30.94 9.45 30.35 9.83L30.35 9.83L30.35 9.83Q29.76 10.21 29.76 10.79L29.76 10.79L29.76 10.79Q29.76 11.10 29.93 11.31L29.93 11.31L29.93 11.31Q30.10 11.52 30.34 11.52L30.34 11.52L30.34 11.52Q30.59 11.52 30.75 11.42L30.75 11.42L30.75 11.42Q30.91 11.33 30.94 11.31L30.94 11.31L30.94 11.31Q31.18 11.34 31.18 11.81L31.18 11.81L31.18 11.81Q31.18 12.28 30.74 12.56L30.74 12.56L30.74 12.56Q30.31 12.85 29.83 12.85L29.83 12.85L29.83 12.85Q29.36 12.85 29.02 12.68L29.02 12.68L29.02 12.68Q28.67 12.52 28.52 12.31L28.52 12.31L28.52 12.31Q28.36 12.10 28.27 11.83L28.27 11.83L28.27 11.83Q28.17 11.51 28.17 11.27L28.17 11.27L28.17 11.27Q28.17 10.29 28.78 9.70L28.78 9.70L28.78 9.70Q29.40 9.11 30.37 8.86L30.37 8.86L30.37 8.86Q31.64 8.61 31.70 8.40L31.70 8.40L31.70 8.40Q31.74 8.25 31.74 7.88L31.74 7.88L31.74 7.88Q31.74 7.14 30.98 7.14L30.98 7.14L30.98 7.14Q30.66 7.14 30.41 7.34L30.41 7.34L30.41 7.34Q30.16 7.55 30.16 7.85L30.16 7.85L30.24 8.19L30.24 8.19Q30.21 8.43 29.74 8.47L29.74 8.47L29.58 8.48L29.58 8.48Q29.16 8.48 28.92 8.27L28.92 8.27L28.92 8.27Q28.67 8.06 28.67 7.71L28.67 7.71L28.67 7.71Q28.67 7.49 28.82 7.22L28.82 7.22L28.82 7.22Q28.97 6.94 29.19 6.78L29.19 6.78L29.19 6.78Q29.41 6.61 29.88 6.47L29.88 6.47L29.88 6.47Q30.35 6.34 30.79 6.34L30.79 6.34L30.79 6.34Q31.22 6.34 31.46 6.37L31.46 6.37L31.46 6.37Q31.70 6.40 32.11 6.50L32.11 6.50L32.11 6.50Q32.52 6.61 32.80 6.90L32.80 6.90L32.80 6.90Q33.07 7.20 33.09 7.52L33.09 7.52L33.09 7.52Q33.11 7.85 33.11 8.47Z"></path></g><defs data-v-423bf9ae=""><linearGradient data-v-423bf9ae="" gradientTransform="rotate(25)" id="bc0dd526-f3ca-4bbb-a1ae-fea407baa2de" x1="0%" y1="0%" x2="100%" y2="0%"><stop data-v-423bf9ae="" offset="0%" style="stop-color: rgb(81, 6, 255); stop-opacity: 1;"></stop><stop data-v-423bf9ae="" offset="100%" style="stop-color: rgb(97, 203, 242); stop-opacity: 1;"></stop></linearGradient></defs><g data-v-423bf9ae="" id="c8bf8b04-e795-4365-acd9-5d79fc71a1d8" transform="matrix(2.8125,0,0,2.8125,0,0)" stroke="none" fill="url(#bc0dd526-f3ca-4bbb-a1ae-fea407baa2de)"><path d="M0 16.024L15.976 32 32 15.976 16.024 0 0 16.024zm15.989 7.323l-7.336-7.336 14.694-.022-7.358 7.358z"></path></g><!----></svg>